<svg xmlns="http://www.w3.org/2000/svg" data-name="Layer 1" viewBox="0 0 40 50" x="0px" y="0px"><title>Artboard 9Media</title><path d="M12.29,32a.66.66,0,0,1-.23,0,.63.63,0,0,1-.39-.58V27H9.13a2.29,2.29,0,0,1-2.29-2.29V10.56A2.29,2.29,0,0,1,9.13,8.27H25.4a.63.63,0,0,1,0,1.25H9.13a1,1,0,0,0-1,1V24.72a1,1,0,0,0,1,1h3.16a.63.63,0,0,1,.63.63v3.4L16.59,26a.61.61,0,0,1,.45-.2H30.8a1,1,0,0,0,1-1V15.85a.63.63,0,1,1,1.25,0v8.87A2.29,2.29,0,0,1,30.8,27H17.31l-4.56,4.77A.66.66,0,0,1,12.29,32Z"/><path d="M22,13.3H10.21a.63.63,0,0,1,0-1.25H22a.63.63,0,1,1,0,1.25Z"/><path d="M18.29,17.09H10.21a.63.63,0,0,1,0-1.25h8.08a.63.63,0,1,1,0,1.25Z"/><path d="M18.29,20.87H10.21a.63.63,0,0,1,0-1.25h8.08a.63.63,0,1,1,0,1.25Z"/><path d="M20.88,20.87A.62.62,0,0,1,20.3,20l1.54-3.78A.6.6,0,0,1,22,16l7.81-7.81a.63.63,0,0,1,.88,0L33,10.52a.6.6,0,0,1,.19.44.63.63,0,0,1-.19.44L25.39,19a.56.56,0,0,1-.2.14l-4.07,1.7A.69.69,0,0,1,20.88,20.87ZM23,16.81,22,19.09,24.59,18l7.06-7L30.23,9.54Z"/><text x="0" y="55" fill="#000000" font-size="5px" font-weight="bold" font-family="'Helvetica Neue', Helvetica, Arial-Unicode, Arial, Sans-serif">Created by D100200z</text><text x="0" y="60" fill="#000000" font-size="5px" font-weight="bold" font-family="'Helvetica Neue', Helvetica, Arial-Unicode, Arial, Sans-serif">from the Noun Project</text></svg>